<?xml version="1.0" encoding="UTF-8" standalone="no"?>
<svg width="439px" height="176px" viewBox="0 0 439 176" version="1.1" xmlns="http://www.w3.org/2000/svg" xmlns:xlink="http://www.w3.org/1999/xlink">
    <!-- Generator: Sketch 3.7.2 (28276) - http://www.bohemiancoding.com/sketch -->
    <title>Slice 1</title>
    <desc>Created with Sketch.</desc>
    <defs></defs>
    <g id="Page-1" stroke="none" stroke-width="1" fill="none" fill-rule="evenodd">
        <path d="M150.129395,11.7870408 C153.829395,28.7870408 154.729395,31.2870408 158.229395,32.8870408 C162.329395,34.7870408 170.029395,33.8870408 172.729395,31.1870408 C173.829395,30.0870408 175.129395,27.4870408 175.729395,25.2870408 C176.329395,22.9870408 177.229395,21.1870408 177.729395,21.1870408 C179.029395,21.1870408 179.029395,26.5870408 177.629395,31.1870408 C176.729395,34.2870408 176.829395,35.9870408 178.229395,40.5870408 C179.229395,43.7870408 180.929395,46.9870408 182.129395,47.7870408 C187.029395,51.1870408 194.629395,48.1870408 197.329395,41.4870408 C198.129395,39.6870408 199.229395,38.1870408 199.729395,38.1870408 C201.329395,38.1870408 200.929395,41.5870408 198.729395,46.6870408 C196.129395,52.6870408 196.229395,57.1870408 198.829395,60.5870408 C202.629395,65.3870408 206.329395,63.7870408 210.229395,55.6870408 C212.129395,51.7870408 212.129395,51.7870408 212.529395,54.3870408 C212.929395,57.5870408 210.229395,63.0870408 204.629395,70.2870408 C193.729395,84.3870408 184.929395,91.5870408 168.129395,99.9870408 C153.729395,107.187041 149.729395,110.287041 149.729395,114.087041 C149.729395,117.687041 156.029395,123.987041 165.729395,129.987041 C169.829395,132.487041 174.929395,135.987041 177.029395,137.787041 C181.329395,141.387041 190.129395,144.187041 197.029395,144.187041 C201.329395,144.187041 201.729395,143.987041 201.729395,141.787041 C201.729395,138.287041 203.529395,137.587041 204.829395,140.587041 C207.329395,145.987041 210.729395,143.387041 210.729395,136.087041 C210.729395,132.387041 212.529395,132.287041 213.329395,135.887041 C214.729395,142.787041 215.229395,142.987041 218.029395,137.687041 C219.429395,134.887041 221.729395,131.587041 223.129395,130.287041 C226.229395,127.387041 226.529395,128.187041 223.629395,132.087041 C221.329395,135.287041 220.529395,141.287041 222.429395,141.887041 C223.129395,142.187041 224.229395,141.087041 224.829395,139.487041 C226.729395,134.787041 227.229395,133.887041 228.229395,134.087041 C229.229395,134.187041 229.429395,135.087041 229.629395,140.387041 C229.729395,144.387041 233.129395,144.187041 234.729395,140.087041 C236.129395,136.787041 237.729395,137.687041 237.729395,141.887041 C237.729395,143.387041 238.329395,144.187041 239.529395,144.287041 C248.629395,144.787041 257.429395,142.187041 263.129395,137.287041 C265.529395,135.187041 270.229395,131.887041 273.429395,130.087041 C280.629395,125.987041 289.729395,117.287041 289.729395,114.487041 C289.729395,110.687041 285.829395,107.387041 275.029395,102.187041 C269.029395,99.2870408 261.229395,94.9870408 257.629395,92.5870408 C242.929395,82.8870408 222.529395,56.9870408 226.529395,52.9870408 C227.329395,52.1870408 228.329395,53.4870408 230.129395,57.5870408 C232.329395,62.5870408 232.929395,63.1870408 235.729395,63.1870408 C238.029395,63.1870408 239.229395,62.4870408 240.729395,59.8870408 C243.229395,55.8870408 243.229395,52.8870408 240.829395,47.6870408 C239.829395,45.4870408 238.729395,42.4870408 238.329395,40.8870408 C237.329395,36.5870408 240.129395,37.4870408 242.229395,42.2870408 C244.229395,46.6870408 247.929395,49.1870408 252.729395,49.1870408 C256.729395,49.1870408 259.329395,46.3870408 261.229395,39.8870408 C262.529395,35.2870408 262.629395,33.9870408 261.329395,29.8870408 C260.029395,25.3870408 260.129395,21.1870408 261.729395,21.1870408 C262.129395,21.1870408 262.929395,23.0870408 263.629395,25.3870408 C264.329395,27.7870408 265.629395,30.4870408 266.429395,31.3870408 C268.429395,33.5870408 277.029395,34.6870408 280.729395,33.1870408 C284.129395,31.7870408 285.029395,29.7870408 288.129395,15.8870408 C290.629395,4.7870408 292.729395,0.187040804 295.229395,0.187040804 C297.029395,0.187040804 297.029395,-0.212959196 295.329395,5.7870408 C290.129395,23.8870408 293.929395,36.6870408 304.129395,35.9870408 C307.829395,35.6870408 308.429395,35.2870408 310.729395,31.1870408 L313.229395,26.6870408 L313.829395,34.6870408 C314.629395,44.1870408 315.829395,47.4870408 319.029395,49.6870408 C320.929395,50.8870408 322.129395,50.9870408 324.129395,50.2870408 C329.729395,48.0870408 333.529395,37.5870408 334.629395,21.0870408 C335.029395,15.0870408 335.729395,9.8870408 336.129395,9.4870408 C336.529395,8.9870408 337.529395,9.5870408 338.429395,10.6870408 C340.529395,13.3870408 339.629395,28.9870408 336.229395,48.3870408 C334.829395,56.4870408 333.729395,65.0870408 333.729395,67.3870408 C333.829395,75.4870408 337.929395,83.1870408 342.129395,83.1870408 C345.329395,83.1870408 354.729395,72.5870408 360.329395,62.5870408 C367.429395,50.0870408 370.229395,42.4870408 372.729395,29.6870408 C377.929395,2.6870408 378.229395,1.6870408 381.429395,4.2870408 C382.729395,5.3870408 382.829395,7.0870408 382.329395,14.1870408 C379.929395,44.3870408 374.129395,64.0870408 362.229395,81.7870408 C350.829395,98.6870408 345.929395,115.887041 350.829395,121.787041 C353.629395,125.187041 361.329395,122.187041 366.129395,115.987041 C369.529395,111.387041 373.329395,101.287041 375.829395,89.3870408 C378.329395,77.8870408 380.729395,71.7870408 383.629395,70.2870408 C385.529395,69.1870408 385.729395,69.3870408 385.729395,71.9870408 C385.729395,73.5870408 385.029395,76.8870408 384.129395,79.2870408 C381.829395,85.8870408 381.229395,95.2870408 382.929395,97.5870408 C385.229395,100.487041 388.229395,98.7870408 392.229395,92.2870408 C397.229395,83.9870408 398.429395,83.1870408 399.229395,87.4870408 C400.129395,92.2870408 397.929395,96.1870408 390.029395,103.687041 C378.829395,114.387041 376.929395,119.687041 382.829395,124.587041 C388.629395,129.487041 396.029395,128.087041 408.129395,119.887041 C419.129395,112.387041 422.829395,107.887041 428.129395,95.1870408 C433.329395,82.6870408 436.129395,78.5870408 437.729395,81.1870408 C439.529395,83.9870408 438.829395,94.3870408 436.429395,100.187041 C428.229395,120.087041 409.529395,133.787041 383.229395,139.087041 C357.729395,144.287041 341.929395,143.887041 321.829395,137.687041 C315.629395,135.787041 309.029395,134.187041 307.329395,134.187041 C300.029395,134.187041 286.829395,142.687041 270.229395,158.087041 C264.829395,163.187041 258.529395,168.387041 256.229395,169.687041 C250.629395,172.987041 241.529395,175.187041 233.529395,175.187041 L226.829395,175.187041 L226.529395,169.387041 L226.229395,163.687041 L216.229395,163.687041 L215.929395,169.587041 L215.629395,175.387041 L205.429395,174.987041 C196.529395,174.687041 194.329395,174.187041 188.729395,171.587041 C185.129395,169.887041 179.329395,165.887041 175.729395,162.687041 C165.729395,153.687041 154.929395,145.987041 145.129395,140.987041 C130.629395,133.487041 130.129395,133.487041 116.929395,137.587041 C102.229395,142.287041 90.9293945,143.487041 76.7293945,142.187041 C41.0293945,138.787041 19.3293945,128.387041 6.62939453,108.387041 C2.32939453,101.587041 -0.670605467,91.1870408 0.129394533,85.6870408 C1.52939453,76.5870408 4.42939453,79.1870408 10.9293945,95.1870408 C15.6293945,106.887041 19.3293945,111.687041 29.3293945,118.787041 C43.7293945,129.087041 55.0293945,130.187041 58.9293945,121.687041 C60.7293945,117.687041 58.9293945,114.187041 50.8293945,105.787041 C46.5293945,101.287041 42.3293945,96.5870408 41.4293945,95.1870408 C39.6293945,92.5870408 39.1293945,85.6870408 40.6293945,84.7870408 C41.1293945,84.3870408 43.7293945,87.4870408 46.4293945,91.3870408 C51.8293945,99.5870408 54.3293945,100.587041 56.6293945,95.7870408 C58.0293945,92.7870408 57.2293945,87.3870408 53.5293945,74.4870408 C52.1293945,69.4870408 52.9293945,68.1870408 55.8293945,70.7870408 C59.0293945,73.6870408 60.2293945,76.6870408 62.7293945,87.6870408 C65.5293945,99.7870408 68.9293945,110.187041 71.8293945,114.787041 C76.3293945,122.187041 86.2293945,125.787041 88.8293945,120.987041 C89.5293945,119.687041 89.8293945,116.287041 89.5293945,112.287041 C88.9293945,103.887041 84.4293945,93.0870408 77.2293945,82.3870408 C66.2293945,65.9870408 62.1293945,54.6870408 58.6293945,30.7870408 C56.2293945,14.0870408 56.3293945,3.8870408 58.9293945,3.3870408 C60.9293945,2.9870408 61.7293945,5.6870408 64.7293945,22.6870408 C67.4293945,38.1870408 71.4293945,49.8870408 77.7293945,61.0870408 C89.9293945,82.7870408 98.1293945,88.1870408 102.729395,77.8870408 C105.329395,72.3870408 105.329395,63.2870408 102.729395,48.8870408 C99.9293945,32.7870408 98.6293945,18.3870408 99.7293945,13.8870408 C101.729395,4.9870408 103.429395,8.0870408 104.529395,22.6870408 C106.129395,42.3870408 110.529395,50.8870408 119.029395,50.2870408 C121.529395,50.1870408 124.629395,42.7870408 124.829395,36.6870408 C124.829395,33.8870408 125.229395,30.5870408 125.729395,29.1870408 L126.429395,26.6870408 L127.129395,29.3870408 C129.729395,38.5870408 142.129395,38.5870408 144.729395,29.2870408 C146.129395,24.0870408 145.929395,14.5870408 144.229395,8.1870408 C141.929395,-0.312959196 142.629395,-1.9129592 146.629395,2.0870408 C147.629395,3.0870408 149.229395,7.3870408 150.129395,11.7870408 Z" id="Path" fill="#000000"></path>
    </g>
</svg>