<svg xmlns="http://www.w3.org/2000/svg" width="782" height="505" viewBox="0 0 782 505">
  <path fill-rule="evenodd" d="M146.6294 2.087c1 1 2.6 5.3 3.5 9.7 3.7 17 4.6 19.5 8.1 21.1 4.1 1.9 11.8 1 14.5-1.7 1.1-1.1 2.4-3.7 3-5.9.6-2.3 1.5-4.1 2-4.1 1.3 0 1.3 5.4-.1 10-.9 3.1-.8 4.8.6 9.4 1 3.2 2.7 6.4 3.9 7.2 4.9 3.4 12.5.4 15.2-6.3.8-1.8 1.9-3.3 2.4-3.3 1.6 0 1.2 3.4-1 8.5-2.6 6-2.5 10.5.1 13.9 3.8 4.8 7.5 3.2 11.4-4.9 1.9-3.9 1.9-3.9 2.3-1.3.4 3.2-2.3 8.7-7.9 15.9-10.9 14.1-19.7 21.3-36.5 29.7-14.4 7.2-18.4 10.3-18.4 14.1 0 3.6 6.3 9.9 16 15.9 4.1 2.5 9.2 6 11.3 7.8 4.3 3.6 13.1 6.4 20 6.4 4.3 0 4.7-.2 4.7-2.4 0-3.5 1.8-4.2 3.1-1.2 2.5 5.4 5.9 2.8 5.9-4.5 0-3.7 1.8-3.8 2.6-.2 1.4 6.9 1.9 7.1 4.7 1.8 1.4-2.8 3.7-6.1 5.1-7.4 3.1-2.9 3.4-2.1.5 1.8-2.3 3.2-3.1 9.2-1.2 9.8.7.3 1.8-.8 2.4-2.4 1.9-4.7 2.4-5.6 3.4-5.4 1 .1 1.2 1 1.4 6.3.1 4 3.5 3.8 5.1-.3 1.4-3.3 3-2.4 3 1.8 0 1.5.6 2.3 1.8 2.4 9.1.5 17.9-2.1 23.6-7 2.4-2.1 7.1-5.4 10.3-7.2 7.2-4.1 16.3-12.8 16.3-15.6 0-3.8-3.9-7.1-14.7-12.3-6-2.9-13.8-7.2-17.4-9.6-14.7-9.7-35.1-35.6-31.1-39.6.8-.8 1.8.5 3.6 4.6 2.2 5 2.8 5.6 5.6 5.6 2.3 0 3.5-.7 5-3.3 2.5-4 2.5-7 .1-12.2-1-2.2-2.1-5.2-2.5-6.8-1-4.3 1.8-3.4 3.9 1.4 2 4.4 5.7 6.9 10.5 6.9 4 0 6.6-2.8 8.5-9.3 1.3-4.6 1.4-5.9.1-10-1.3-4.5-1.2-8.7.4-8.7.4 0 1.2 1.9 1.9 4.2.7 2.4 2 5.1 2.8 6 2 2.2 10.6 3.3 14.3 1.8 3.4-1.4 4.3-3.4 7.4-17.3 2.5-11.1 4.6-15.7 7.1-15.7 1.8 0 1.8-.4.1 5.6-5.2 18.1-1.4 30.9 8.8 30.2 3.7-.3 4.3-.7 6.6-4.8l2.5-4.5.6 8c.8 9.5 2 12.8 5.2 15 1.9 1.2 3.1 1.3 5.1.6 5.6-2.2 9.4-12.7 10.5-29.2.4-6 1.1-11.2 1.5-11.6.4-.5 1.4.1 2.3 1.2 2.1 2.7 1.2 18.3-2.2 37.7-1.4 8.1-2.5 16.7-2.5 19 .1 8.1 4.2 15.8 8.4 15.8 3.2 0 12.6-10.6 18.2-20.6 7.1-12.5 9.9-20.1 12.4-32.9 5.2-27 5.5-28 8.7-25.4 1.3 1.1 1.4 2.8.9 9.9-2.4 30.2-8.2 49.9-20.1 67.6-11.4 16.9-16.3 34.1-11.4 40 2.8 3.4 10.5.4 15.3-5.8 3.4-4.6 7.2-14.7 9.7-26.6 2.5-11.5 4.9-17.6 7.8-19.1 1.9-1.1 2.1-.9 2.1 1.7 0 1.6-.7 4.9-1.6 7.3-2.3 6.6-2.9 16-1.2 18.3 2.3 2.9 5.3 1.2 9.3-5.3 5-8.3 6.2-9.1 7-4.8.9 4.8-1.3 8.7-9.2 16.2-11.2 10.7-13.1 16-7.2 20.9 5.8 4.9 13.2 3.5 25.3-4.7 11-7.5 14.7-12 20-24.7 5.2-12.5 8-16.6 9.6-14 1.8 2.8 1.1 13.2-1.3 19-8.2 19.9-26.9 33.6-53.2 38.9-25.5 5.2-41.3 4.8-61.4-1.4-6.2-1.9-12.8-3.5-14.5-3.5-7.3 0-20.5 8.5-37.1 23.9-5.4 5.1-11.7 10.3-14 11.6-5.6 3.3-14.7 5.5-22.7 5.5h-6.7l-.3-5.8-.3-5.7h-10l-.3 5.9-.3 5.8-10.2-.4c-8.9-.3-11.1-.8-16.7-3.4-3.6-1.7-9.4-5.7-13-8.9-10-9-20.8-16.7-30.6-21.7-14.5-7.5-15-7.5-28.2-3.4-14.7 4.7-26 5.9-40.2 4.6-35.7-3.4-57.4-13.8-70.1-33.8-4.3-6.8-7.3-17.2-6.5-22.7 1.4-9.1 4.3-6.5 10.8 9.5 4.7 11.7 8.4 16.5 18.4 23.6 14.4 10.3 25.7 11.4 29.6 2.9 1.8-4 0-7.5-8.1-15.9-4.3-4.5-8.5-9.2-9.4-10.6-1.8-2.6-2.3-9.5-.8-10.4.5-.4 3.1 2.7 5.8 6.6 5.4 8.2 7.9 9.2 10.2 4.4 1.4-3 .6-8.4-3.1-21.3-1.4-5-.6-6.3 2.3-3.7 3.2 2.9 4.4 5.9 6.9 16.9 2.8 12.1 6.2 22.5 9.1 27.1 4.5 7.4 14.4 11 17 6.2.7-1.3 1-4.7.7-8.7-.6-8.4-5.1-19.2-12.3-29.9-11-16.4-15.1-27.7-18.6-51.6-2.4-16.7-2.3-26.9.3-27.4 2-.4 2.8 2.3 5.8 19.3 2.7 15.5 6.7 27.2 13 38.4 12.2 21.7 20.4 27.1 25 16.8 2.6-5.5 2.6-14.6 0-29-2.8-16.1-4.1-30.5-3-35 2-8.9 3.7-5.8 4.8 8.8 1.6 19.7 6 28.2 14.5 27.6 2.5-.1 5.6-7.5 5.8-13.6 0-2.8.4-6.1.9-7.5l.7-2.5.7 2.7c2.6 9.2 15 9.2 17.6-.1 1.4-5.2 1.2-14.7-.5-21.1-2.3-8.5-1.6-10.1 2.4-6.1zM507.1 7.5V15h11V0h28v24h11V0h28v15h11V0h3.6c9.4 0 18.7 6.4 21.1 14.5.7 2.2 8.7 49.6 17.9 105.4l16.6 101.3-1.9 2.7c-1.6 2.1-2.8 2.6-6.3 2.6-3.4 0-4.6-.5-6-2.5-1-1.4-10.6-37.9-22-83.8-22.6-90.7-21.4-87.2-31.3-91.8-5.1-2.4-5.5-2.4-36.2-2.4-30.7 0-31.1 0-36.2 2.4-9.9 4.6-8.7 1.1-31.3 91.8-11.4 45.9-21 82.4-22 83.8-2.5 3.6-9.5 3.6-12.2-.1l-1.9-2.6 16.6-101.4c9.1-55.8 17.3-103.3 18.1-105.6.8-2.3 2.5-5.4 3.6-6.9 2.9-3.6 11.3-7.4 16.6-7.4h4.2v7.5zM344.2277 199.6752c3.3 2.8 17.7 11.8 32 19.9 14.3 8.2 27.7 16.5 29.7 18.5 5.4 5.1 10.8 14.6 10.8 19.1 0 3.1-.8 4.3-5.1 8.4-4.6 4.3-5.4 4.7-8.7 4.2-2.1-.3-10.7-1.5-19.4-2.8-13-2-16-2.1-18-1.1-1.2.8-6.1 6.5-10.8 12.9-14.1 19.1-14.5 19.3-21.7 11.4-2.5-2.7-5.8-5.5-7.4-6.2-6.1-2.5-7-.8-20.1 36.2-8 22.5-12.5 34-14 35.2-1.9 1.6-4.2 1.7-22.2 1.5l-20.1-.3-.3-7.3-.3-7.2h-9.8l-.3 7.2-.3 7.3h-158l-.3-7.3-.3-7.2h-9.8l-.3 7.2-.3 7.3-17.5.3c-18 .3-22.2-.4-23.5-3.6-.4-1-3.3-21.8-6.5-46.3-3.2-24.6-6-45.2-6.4-45.7-.4-.6-3.3-1.9-6.6-2.8-3.2-.9-6.7-2.5-7.6-3.5-2-2.2-1.2-6.3 1.3-7.4 1-.4 18.9-3.8 39.8-7.6 47.6-8.7 52.4-9 78.5-5.2 16.3 2.4 21.1 2.7 29.5 2.1 9.9-.7 10.4-.9 39-12.8 19-8 30.7-12.3 34-12.6 4.1-.5 8.7.5 24.5 5 10.7 3.1 21.5 5.6 23.9 5.6 9.5 0 15.3-2.7 33.9-15.6l17.7-12.3.3 6.9.3 7h10.9v-8.1c0-9.3-1-9.2 9.5-.3zM635 256.6v7.5l5.3-.3 5.2-.3.3-7.3.3-7.2H673v24h11v-24h28v15h11v-15h5.3c3.9 0 6.5.7 10.3 2.9 9.5 5.5 8.4.7 26.9 114.2 9.1 55.3 16.5 101.7 16.5 103.2 0 2.8-4.1 6.7-7.1 6.7-3.5 0-6.8-2.3-7.8-5.4-.6-1.7-9.6-37.5-20.1-79.6-10.5-42.1-19.8-78.6-20.6-81.2-1.8-5.5-8.2-11.9-14-13.9-3-1.1-11-1.4-34.4-1.4h-30.5l-5 2.6c-9.8 4.9-8.8 2.2-31.5 93-17.6 70.9-20.5 81.7-22.7 83.6-4.9 4.5-12.3 1.5-12.3-5 0-1.8 7.5-48.7 16.6-104.2 17.9-109.1 17.3-106.4 24.3-111.4 4.3-3.1 7.1-4 12.9-4l5.2-.1v7.6zM507.8 374.503c10.8 3.1 20.9 6.3 22.5 7.1 3 1.5 26.9 28.9 29.5 33.8 3.2 6 2.1 11.2-8.7 41.5-5.6 15.6-10.7 29-11.3 29.7-.7.9-4.1 1.3-10.9 1.3H519v-15.1l-5.2.3-5.3.3-.3 7.2-.3 7.3H350v-15.1l-5.2.3-5.3.3-.3 7.2-.3 7.3h-7.4c-6.4 0-7.6-.3-8.5-2-1.1-2.1-11-77.3-11-83.8 0-2.2.6-4.4 1.3-5 1.8-1.5 57-11.2 63.7-11.2 3 0 12.9 1.1 22 2.3 25.1 3.6 27.1 3.2 56.5-9.1 16.9-7.1 25.3-10 28.3-10.1 2.4-.1 12.7 2.3 24 5.5zM233.1 390.1c11.7 3.3 22.5 6.8 24 7.7 1.5 1 8.5 8.6 15.6 17 14.4 16.9 16.2 20.6 14.2 28.3-2.5 9.2-20.2 57.4-21.7 59.1-1.3 1.5-3.2 1.8-11 1.8h-9.3v-15h-11v15h-158v-15h-11v15h-6.8c-5.4 0-7.3-.4-8.5-1.8-1.2-1.3-3-12.3-7.1-44.2L37 415.5l2.2-2.1c1.8-1.8 6.7-3 25.7-6.4 30.1-5.4 40.5-5.9 60.5-3 23.3 3.4 26.6 3 52.1-7.6 23.8-9.9 30.2-12.3 32.6-12.4.9 0 11.2 2.7 23 6.1z"/>
</svg>
