<svg xmlns="http://www.w3.org/2000/svg" version="1" viewBox="0 0 1086 141">
  <path d="M172 23.5c-.7.8-1.5 5.3-1.9 10-.4 4.6-1.2 9-1.9 9.7-.6.6-4.2 1.5-7.9 1.9-5.8.6-7.1 1.1-9.5 3.8-3 3.4-3.4 5.1-1.8 8.2.9 1.7 2.2 1.9 10.5 1.9h9.5v7.7c-.1 5.3-.5 8.4-1.5 9.7-1.1 1.5-1.5 4.7-1.5 12 0 16.4 2.5 21.9 12.6 27.6 4.9 2.7 6.5 3.1 10.6 2.8 7.1-.7 12-4.4 15.7-12 3.6-7.4 4.8-15.2 2.9-18.8-1.1-1.9-2.1-2.5-4.8-2.5-3.8 0-5.2 1.8-7 9.2-1.4 5.5-5.4 10.3-8.7 10.3-1.4 0-3.7-1.3-5.4-2.9l-2.9-2.9v-19c0-15.5.3-19.2 1.5-20.2s3.2-.9 9.9 0c9.2 1.4 11 .9 12.6-3.5 1-2.6-.7-7.3-3.2-8.6-1-.6-5.8-.9-10.6-.7l-8.7.3V36.4c0-11.9-.9-14.4-5-14.4-1.2 0-2.8.7-3.5 1.5zM304 23.5c-.7.8-1.5 5.3-1.9 10-.4 4.6-1.2 9-1.9 9.7-.6.6-4.2 1.5-7.9 1.9-5.8.6-7.1 1.1-9.5 3.8-3 3.4-3.4 5.1-1.8 8.2.9 1.7 2.2 1.9 10.5 1.9h9.5v7.7c-.1 5.3-.5 8.4-1.5 9.7-1.1 1.5-1.5 4.7-1.5 12 0 16.4 2.5 21.9 12.6 27.6 4.9 2.7 6.5 3.1 10.6 2.8 7.1-.7 12-4.4 15.7-12 3.6-7.4 4.8-15.2 2.9-18.8-1.1-1.9-2.1-2.5-4.8-2.5-3.8 0-5.2 1.8-7 9.2-1.4 5.5-5.4 10.3-8.7 10.3-1.4 0-3.7-1.3-5.4-2.9l-2.9-2.9v-19c0-15.5.3-19.2 1.5-20.2s3.2-.9 9.9 0c9.2 1.4 11 .9 12.6-3.5 1-2.6-.7-7.3-3.2-8.6-1-.6-5.8-.9-10.6-.7l-8.7.3V36.4c0-11.9-.9-14.4-5-14.4-1.2 0-2.8.7-3.5 1.5zM22.9 27.5c-7.8 4-12.4 10.4-16.6 23C2.6 61.3 2.5 61.8 2.6 76c0 16 1 19.9 7.6 31 4.5 7.4 12.8 11.9 23.9 12.7 8.8.7 14.1-1.1 20.6-7 8.8-8 13.1-26 6.8-28.9-3.6-1.6-5.8.4-8.4 7.5-4.9 13-10.6 18.2-19.3 17.4-12.8-1.1-19.5-15.6-18.7-40.5.4-9.8.7-11.4 3.7-17.4 4.5-9.2 7.8-11.8 15-11.8 9.7 0 15.1 5 17.2 16 2.2 11.2 5.1 14.3 9.4 10.1 1.9-1.9 2.2-3.6 2.6-17.4.7-17.5-.1-22-4-22.6-1.8-.2-3.2.5-5.1 2.8l-2.6 3.2-6.4-3.1c-8.2-3.8-15.3-4-22-.5zM554.7 26.8c-1.8 2-2.2 5.9-.9 7.9.4.7 2.6 1.9 4.7 2.6l4 1.4.3 33.5.2 33.6-3.5.6c-1.9.4-4.1 1.4-5 2.2-2.1 2.1-1.9 7 .5 9.4 1.8 1.8 2.9 1.9 13.7 1.4 9.2-.5 12.4-1 14.4-2.4 2.6-1.9 2.7-1.9 5 .6 2.8 2.9 5.6 3.1 8.5.3 2-1.9 2.4-1.9 5-.6 2 1 6.3 1.5 14.2 1.6 9.9.1 11.5-.2 13.2-1.9 2.3-2.3 2.6-6.8.7-9.4-.7-1-2.9-2.1-4.7-2.5l-3.5-.7-.6-6.9c-.4-3.9-.7-18.8-.8-33.2l-.1-26.1 2.9-.7c3.9-.8 5.3-2.7 4.9-6.7-.4-4.7-3.4-5.9-14.2-5.6-8.8.3-9 .4-10.7 3.3-1.2 2-3 11.8-5.4 28.5-4.1 28.9-5.4 35.6-6.5 34.3-.8-.9-3.4-14.1-5-25.8-.9-7.2-3.2-22.5-4.6-31.2-.3-1.8-1.6-4.6-3-6.3-2.5-3-2.7-3-12.3-3-8.2 0-10.1.3-11.4 1.8zm54.1 78.8c-.7.7-3 1.7-5.1 2.3l-3.9 1 .7-6.2c.5-4.8 7.6-48.5 8.7-54.1.2-.6.4 11.7.5 27.3.3 22 0 28.8-.9 29.7zm-32.3-37.1c1.4 8.2 3.5 20.3 4.7 26.7 1.2 6.5 1.9 12 1.5 12.4-.3.3-2.5 0-4.9-.7l-4.3-1.4-.1-27.5c-.1-15.1 0-26.8.2-26 .1.8 1.5 8.2 2.9 16.5zM348.7 27.2c-3.3 1.2-4.4 4.7-2.7 8.8 1.1 2.7 1.7 3 6 3 3.1 0 5.2.5 6 1.5 1 1.2 1.3 9.3 1.4 34.3l.1 32.7h-6.8c-7.2 0-8.7.9-8.7 5.2 0 6.1 4.6 8.9 12.9 7.7 3.1-.4 9.5-.8 14.2-.8 9.5-.1 11.9-1.2 11.9-5.5 0-3.9-1.2-5.1-7.1-7.1l-5.4-1.7.1-10.4c.1-8.9.4-11.2 2.6-16 6-13.2 18-20.7 23.8-14.9 1.8 1.8 2 3.3 2 18.9 0 21.5-.3 22.9-4.5 23.7-7.1 1.3-10 9.3-4.5 12.1 3.4 1.8 26.1 1.3 28.4-.6 2.1-1.7 2.1-7.5 0-9.2-.9-.8-3.3-1.9-5.3-2.4l-3.6-1.1-.5-22c-.5-22-.5-22.1-3.2-26.2-3.9-5.8-7.7-7.5-15.2-7-7.1.5-13.3 4-16.7 9.4-1.1 1.9-2.5 3.2-3 2.8-.5-.3-.9-7.5-.9-16 0-15.1-.1-15.6-2.5-17.9-2.1-2.2-3.3-2.5-9.2-2.4-3.7 0-8 .5-9.6 1.1zM658.4 48c-10.1 3.1-18 12.6-20.8 25.1-2.2 9.6-2 16.6.9 25.7 4.2 13.4 7.7 16.6 23.1 21.6 7.2 2.3 10.1 2 16.1-1.4 9.5-5.5 14.8-14.1 17.9-29.1 2.2-10.6 1.3-15.7-4.9-27.3-3.7-6.9-4.9-8.3-10.1-11.5-4.9-3-6.9-3.6-12.5-3.8-3.6-.1-8 .2-9.7.7zm14.8 14.3c6.7 3 7.4 3.9 9.4 11.8 2.9 11.3.8 22.4-5.5 28.7-3.2 3.1-3.5 3.2-12 3.2h-8.7l-4.1-4.2c-5.1-5.2-6.8-11.2-6-20.3.8-7.9 3.4-13.2 8.8-17.9 5.2-4.4 10.2-4.8 18.1-1.3zM723.4 48c-10.1 3.1-18 12.6-20.8 25.1-2.2 9.6-2 16.6.9 25.7 4.2 13.4 7.7 16.6 23.1 21.6 7.2 2.3 10.1 2 16.1-1.4 9.5-5.5 14.8-14.1 17.9-29.1 2.2-10.6 1.3-15.7-4.9-27.3-3.7-6.9-4.9-8.3-10.1-11.5-4.9-3-6.9-3.6-12.5-3.8-3.6-.1-8 .2-9.7.7zm14.8 14.3c6.7 3 7.4 3.9 9.4 11.8 2.9 11.3.8 22.4-5.5 28.7-3.2 3.1-3.5 3.2-12 3.2h-8.7l-4.1-4.2c-5.1-5.2-6.8-11.2-6-20.3.8-7.9 3.4-13.2 8.8-17.9 5.2-4.4 10.2-4.8 18.1-1.3zM439.5 51.3c-7.3 4.1-11.6 10.5-13.9 20.8-3.6 15.7-.7 31.6 7.3 40.2 4.9 5.4 9.7 7.2 19.1 7.2 12.4 0 19.5-3.5 25.1-12.3 4.5-7.1 3.6-12.2-2.2-12.2-2 0-3.8 1.3-7 5.1-10.2 12.2-24.9 11.5-31.4-1.5-2.9-5.7-3.2-10.1-.9-11 .9-.3 10.2-.6 20.7-.6 13.4 0 20-.4 21.7-1.3 3.4-1.7 3.7-6.1 1-15-1.9-6.4-2.9-7.9-8.8-13.7-7.3-7.1-11.4-9-19.8-9-3.7 0-6.4.9-10.9 3.3zm20.6 11.8c5.1 1.6 9 5.8 9.2 10.1l.2 3.3-16.2.3-16.3.2v-2.2c0-3.9 3.8-8.8 8.3-10.8 4.8-2.2 9.3-2.5 14.8-.9zM777.6 50c-8.1 4.1-11.6 9.3-11.6 17.4 0 7.5 3.1 13 9 16.1 1.4.7 8.8 2.3 16.5 3.4 14.9 2.3 17.5 3.5 17.5 8.2 0 4.5-4.3 8.6-10.4 10-8.4 1.9-12.2.7-18.3-5.8-2.9-3-5.3-6.3-5.3-7.2 0-4.1-7-5.8-9-2.2-.5 1.1-1 7.4-1 14.1 0 13.7.7 16 5 16 2.3 0 3.3-.7 4.6-3.3.9-1.7 1.8-3.4 2-3.6.2-.2 1.8.7 3.6 2.1 12 9.1 30.2 4.8 36.4-8.6 3.3-7.1 3.1-12.8-.5-19.1-1.6-2.8-3.5-5.6-4.3-6.2-2.6-2.1-11.5-4.4-20.8-5.4-11.7-1.4-13.8-2.1-14.6-5.4-1.6-6.4 4.7-11.1 13.5-10.2 8.8.8 10.7 1.9 14 8.5 3.5 7 5.3 8.6 8.5 7.8 3.8-1 4.8-5 3.9-16.2-.8-9.7-.9-9.9-3.7-10.9-2.5-.8-3.1-.6-5.1 1.9l-2.2 2.8-3.4-1.8c-4.5-2.3-12.6-4.4-16.9-4.3-1.9 0-5.3.9-7.4 1.9zM838.5 51.3c-7.3 4.1-11.6 10.5-13.9 20.8-3.6 15.7-.7 31.6 7.3 40.2 4.9 5.4 9.7 7.2 19.1 7.2 12.4 0 19.5-3.5 25.1-12.3 4.5-7.1 3.6-12.2-2.2-12.2-2 0-3.8 1.3-7 5.1-10.2 12.2-24.9 11.5-31.4-1.5-2.9-5.7-3.2-10.1-.9-11 .9-.3 10.2-.6 20.7-.6 13.4 0 20-.4 21.7-1.3 3.4-1.7 3.7-6.1 1-15-1.9-6.4-2.9-7.9-8.8-13.7-7.3-7.1-11.4-9-19.8-9-3.7 0-6.4.9-10.9 3.3zm20.6 11.8c5.1 1.6 9 5.8 9.2 10.1l.2 3.3-16.2.3-16.3.2v-2.2c0-3.9 3.8-8.8 8.3-10.8 4.8-2.2 9.3-2.5 14.8-.9zM108.6 50.6c-3.3 3.2-1.1 7.8 4.2 9 5.6 1.2 5.4.6 5 13.6-.4 14.3-1.7 18-9.5 26.7-4 4.3-5.5 5.4-8.9 5.8-5.5.7-8.1-.9-9.4-5.7-.6-2.1-1.1-13.3-1.1-24.7C88.8 49.3 89 50 78 50c-8.6 0-11 1.2-11 5.5 0 2.7 2.7 4.9 7.4 5.9l2.9.7-.8 17.9c-.8 21.1.2 26.4 6.3 33.2 8.7 9.7 19.2 9.1 30-1.5l5.2-5.1v4.2c0 5.7 2.7 7.4 13 8 6.9.4 8 .2 9.9-1.7 2.6-2.6 2.7-7.2.2-9.5-1.1-1-4.4-2.1-7.3-2.5l-5.3-.6-.3-12.5c-.2-6.9.2-16.8.8-22.2 1.3-10.3.7-16.9-1.7-19.3-2.1-2.2-16.6-2.1-18.7.1z"/>
</svg>
<svg xmlns="http://www.w3.org/2000/svg" version="1" viewBox="0 0 998 141">
  <path d="M437.7 19.8c-2.4 2.6-2.2 3.4 2.8 11.4 5.2 8.3 7.8 16 9.6 27.8 2.3 15.7-.4 30.3-8.3 45.8-6 11.9-6.3 18.2-.7 18.2 7.6 0 18.9-31.2 18.9-52.4 0-10.3-1.3-17.5-5.2-29.6-6.3-19.5-12.1-26.7-17.1-21.2zM247.7 22.2c-3.5 3.8-7.5 12.2-10.6 22.3-1.6 5.2-2.3 10.7-2.7 21.5-.6 13.2-.4 15.6 2 26.5 5 22.8 13.8 35.5 19.9 28.7 2.5-2.8 2.1-4.9-2.2-11.3-14.4-21.5-14.6-53.4-.6-78.4 3.7-6.7 4.3-9.3 2.3-11.3-2.1-2.1-4.9-1.3-8.1 2zM142.1 34.9c-.8.5-1.6 3.6-2 8-.4 3.9-1.1 7.5-1.7 8.1-.6.6-3.5 1.3-6.5 1.7-7.5.8-12.1 5.1-9.9 9.3.9 1.7 2.1 2 9 2h7.8l.4 19.2c.3 21.8.9 23.9 8.3 29 8.8 6.1 19.9 1.4 24-10.1C174.3 94 173 87 168.6 87c-3.1 0-4.3 1.6-6.2 7.9-2.6 8.9-7.2 11.4-12 6.6-2.4-2.4-2.4-2.5-2.2-19.7l.3-17.3 8.7.3c8.3.2 8.8.1 10.3-2.2 1.4-2 1.4-2.9.4-4.8-1.8-3.5-2.7-3.8-11.1-3.8H149v-8.8c0-8.9-.8-11.2-3.9-11.2-.9 0-2.2.4-3 .9zM281.1 34.9c-.8.5-1.6 3.6-2 8-.4 3.9-1.1 7.5-1.7 8.1-.6.6-3.5 1.3-6.5 1.7-7.5.8-12.1 5.1-9.9 9.3.9 1.7 2.1 2 9 2h7.8l.4 19.2c.3 21.8.9 23.9 8.3 29 8.8 6.1 19.9 1.4 24-10.1C313.3 94 312 87 307.6 87c-3.1 0-4.3 1.6-6.2 7.9-2.6 8.9-7.2 11.4-12 6.6-2.4-2.4-2.4-2.5-2.2-19.7l.3-17.3 8.7.3c8.3.2 8.8.1 10.3-2.2 1.4-2 1.4-2.9.4-4.8-1.8-3.5-2.7-3.8-11.1-3.8H288v-8.8c0-8.9-.8-11.2-3.9-11.2-.9 0-2.2.4-3 .9zM17.5 38.2c-6.7 4-10 9.4-12.9 21.6-4.2 17.5-3.3 31.9 2.6 43.9 2.9 5.9 3.9 7.1 8.1 9.1 2.8 1.4 7.5 2.6 11.6 2.9 5.8.5 7.6.2 11.5-1.7 5.9-2.8 11.3-9.1 13.1-15.4 2-6.6 1.9-8.9-.4-11.7-1.6-1.9-2.3-2.2-3.7-1.3-1.9 1.1-1.8 1-6.3 10.5-3.5 7.4-6.5 10-12.5 10.6-11.5 1.3-18.4-12.6-17.4-34.8.3-8 .8-10.2 3.3-14.7C18.4 50 21.1 48 26.9 48c8.2 0 12.7 4.3 14.5 14 1.3 6.6 2.7 9 5.2 9 4.2 0 5.5-4.4 5.3-18.2-.2-16.4-2.1-19.8-8-14.2l-2.7 2.6-4.3-2.2c-6.5-3.3-14.4-3.7-19.4-.8zM520 38c-1.9 3.6-.8 6.3 3.3 8.3L527 48v56l-2.7.6c-4 1-5.3 2.3-5.3 5.4 0 5.1 2.4 6 13.6 5.4 5.4-.4 10.9-1.2 12-2 1.9-1.1 2.4-1.1 3.9.6 2.2 2.5 5.2 2.5 7.7.3 1.6-1.4 2.3-1.5 3.8-.5 1.2.7 5.9 1.2 11.8 1.2 8.3 0 10.2-.3 11.5-1.8 3.5-3.8.7-10.2-4.4-10.2-2.2 0-2.9-9.1-2.9-35.5V47.4l3.3-1.5c2.3-1 3.3-2.2 3.5-4.1.5-4.2-2.8-5.8-12-5.8-6.9 0-7.9.2-9.2 2.2-.9 1.3-3 12.8-5.1 26.8-1.9 13.5-3.9 25.4-4.4 26.5-1.1 2.7-2.3-2.8-6.2-29.3-3.8-26.2-3.5-25.6-15.7-26-8.4-.3-9.2-.1-10.2 1.8zm45.8 66.2c-2 1.3-5.8 2.1-6.5 1.4-.8-.8 1-14.6 4.5-34.6l2.7-15.5.3 23.9c.2 18.5-.1 24.1-1 24.8zm-23.9-15.1c1.2 6.5 2.1 12.9 2.1 14.3 0 2.4-.3 2.6-2.7 2-5.4-1.3-5.3-1.1-5.2-24.8l.1-22.1L538 68c1 5.2 2.7 14.7 3.9 21.1zM318.2 38.6c-4.6 3.2-2 9.1 4.3 9.6l4 .3.7 8.5c.4 4.7.9 17.5 1 28.5l.3 20h-5.3c-5.5 0-7.2 1.1-7.2 4.9 0 1.1 1 3 2.1 4.3 2.1 2.1 2.7 2.2 13.3 1.7 13.8-.7 16.6-1.6 16.6-5.5 0-3.1-2.5-5.3-7.4-6.5l-2.9-.7.5-9.2c.4-8 .9-10 3.8-15.4 3.8-7.1 8.2-10.9 13.3-11.8 3-.4 3.8-.1 5.1 1.9 1.4 2.1 1.6 5.1 1.4 18.4l-.3 15.9-3.1 1c-4.6 1.5-6.4 3.4-6.4 6.6 0 3.9 2.8 4.9 14 4.9 10.1 0 13.5-1 14.5-4 .8-2.7-1.9-7-4.4-7-5.1 0-5.1 0-5.1-18.9 0-19.8-.7-22.7-6.9-26.8-6.7-4.5-16.2-2.6-22.3 4.6-1.9 2.2-3.8 4.1-4.1 4.1-.4 0-.7-6.1-.7-13.5 0-16.6-.5-17.5-10.3-17.5-4 0-7 .5-8.5 1.6zM602.4 57.4c-15.2 7.1-20.1 31.6-9.8 49.3 1.4 2.4 3.9 5 5.6 5.9 4.4 2.3 13.9 5.3 16.6 5.4 5.4 0 14.9-7.5 18.5-14.7 2.4-4.8 5-17.2 4.5-21.7-.8-6.5-6.5-18.1-10.4-21.1-7.9-6.1-16.4-7.1-25-3.1zm19.1 10.9c5.4 3 7.7 9.3 7.1 18.9-.5 7.3-2 11-6 14.7-2.3 2.1-3.5 2.4-10.1 2.4-7.2 0-7.7-.1-11-3.3-4.3-4.1-5.9-9.5-5.2-17.1.6-7 3.6-13 7.9-15.8 4.5-2.9 12-2.8 17.3.2zM657.4 57.4c-15.2 7.1-20.1 31.6-9.8 49.3 1.4 2.4 3.9 5 5.6 5.9 4.4 2.3 13.9 5.3 16.6 5.4 5.4 0 14.9-7.5 18.5-14.7 2.4-4.8 5-17.2 4.5-21.7-.8-6.5-6.5-18.1-10.4-21.1-7.9-6.1-16.4-7.1-25-3.1zm19.1 10.9c5.4 3 7.7 9.3 7.1 18.9-.5 7.3-2 11-6 14.7-2.3 2.1-3.5 2.4-10.1 2.4-7.2 0-7.7-.1-11-3.3-4.3-4.1-5.9-9.5-5.2-17.1.6-7 3.6-13 7.9-15.8 4.5-2.9 12-2.8 17.3.2zM705.2 58.1c-6 3.4-8.2 7.2-8.2 14 0 5.9 2.6 10.6 7.1 13 2.2 1.1 8.7 2.6 14.6 3.5 12 1.6 15.3 3.2 15.3 7 0 5.8-8.6 10.4-16.5 9-4-.8-10-6.4-12.1-11.4-1-2.3-2.1-3.2-3.7-3.2-4.1 0-4.7 1.7-4.7 13s.6 13 4.8 13c1.7 0 2.6-.8 3.3-3 1.1-3.1 2.3-3.8 3.5-1.9 1.3 2.1 8.9 4.9 13.5 4.9 6.3 0 14.3-4.1 17.6-9.2 1.7-2.5 2.8-5.7 3.1-9.1.3-4.6 0-5.8-3-10.2-2.9-4.3-4-5.2-9.3-6.8-3.3-1-9.4-2-13.5-2.4-8.1-.6-11-2.2-11-5.8 0-1.2 1.1-3.2 2.5-4.5 2-1.9 3.6-2.3 8.4-2.3 7.4 0 10.3 1.7 13.5 8.2 2.9 5.6 4.5 6.6 7.5 4.5 1.9-1.4 2.1-2.5 2.1-10.8 0-9.3-.8-11.6-3.9-11.6-.8 0-2.5 1-3.8 2.1-1.6 1.6-2.6 1.9-3.5 1.1-1.9-1.5-11.7-4.2-15.2-4.2-1.7 0-5.5 1.4-8.4 3.1zM57 58.4c-.6.8-1 2.5-.8 3.7.3 2.2 1 2.8 6.2 4.8l2.9 1.2-.9 9.7c-1.9 20.4 0 29.3 7.2 34.8 6.7 5.2 15 4.2 22.8-2.7l4.5-4 .3 3.3c.4 4.2 3.4 5.8 11.5 5.8 6.8 0 9.3-1.5 9.3-5.4 0-3.2-2.2-4.8-7.7-5.4l-4.6-.5.6-20.6c.8-25.7.9-25.5-8.7-25.9-4.1-.2-7.3.2-8.2.9-3.2 2.6-.6 7 4.9 8.3l2.7.6v9.8c0 8.5-.3 10.5-2.5 14.9C92.9 98.8 86 105 81.7 105c-2.2 0-4.1-.8-5.3-2.1-1.7-1.9-2-4.3-2.4-23-.4-17.2-.8-21.1-2-21.9-2.4-1.6-13.6-1.2-15 .4zM397.5 59.8c-6 3.3-10 8.8-12 16.7-3.4 13.3-1.2 24.7 6.3 32.5 6.8 7 15 8.7 25.9 5.5 8.5-2.5 16.8-13.8 13.3-18-2.2-2.7-5.1-1.6-9.6 3.3-5.1 5.6-10.3 7.8-16 6.8-4.8-.9-9.8-5.9-11.4-11.3-2.2-7.3-2.3-7.3 17.4-7.3 15.3 0 17.6-.2 19.6-1.8 2.2-1.8 2.2-2.1 1-7.3-1.7-7.2-3-9.6-8.2-14.6-8.1-7.9-17.3-9.5-26.3-4.5zm18.5 9.8c4.2 1.7 6 3.9 6 7.3 0 2-.5 2.1-13.5 2.1-12.5 0-13.5-.1-13.5-1.9 0-1 .9-3 2.1-4.5 3.5-4.4 11.9-5.8 18.9-3zM758.5 59.8c-6 3.3-10 8.8-12 16.7-3.4 13.3-1.2 24.7 6.3 32.5 6.8 7 15 8.7 25.9 5.5 8.5-2.5 16.8-13.8 13.3-18-2.2-2.7-5.1-1.6-9.6 3.3-5.1 5.6-10.3 7.8-16 6.8-4.8-.9-9.8-5.9-11.4-11.3-2.2-7.3-2.3-7.3 17.4-7.3 15.3 0 17.6-.2 19.6-1.8 2.2-1.8 2.2-2.1 1-7.3-1.7-7.2-3-9.6-8.2-14.6-8.1-7.9-17.3-9.5-26.3-4.5zm18.5 9.8c4.2 1.7 6 3.9 6 7.3 0 2-.5 2.1-13.5 2.1-12.5 0-13.5-.1-13.5-1.9 0-1 .9-3 2.1-4.5 3.5-4.4 11.9-5.8 18.9-3z"/>
</svg>
