<svg xmlns="http://www.w3.org/2000/svg" version="1" viewBox="0 0 200 200">
  <path d="M108.5 31.5c-6.1 7.9-8.6 22.8-9.1 52.4l-.3 21.5-4.5 2.4-4.4 2.4-3.6-3.5c-5.7-5.7-13.8-6.1-23.6-1.2-8.5 4.3-14 11.5-14 18.4 0 3.5 4.2 9.8 7.9 11.9 9 5.1 17.7 2.1 34.6-11.8 6-5 11.1-8.6 11.3-8 .2.6-.6 7-1.8 14.2-2.8 16.4-2.4 24.1 1.5 29.9 3.2 4.9 10.1 8.4 14.9 7.5 9.1-1.7 13.8-8.9 13.8-21 0-11.8-4.7-19.7-12.9-21.8l-4.3-1v-11.3l6.8-3.2c3.7-1.7 10.5-5.6 15.2-8.7l8.5-5.5.3 3.5c.3 3.2.6 3.5 3 3.2l2.7-.3.3-15.8.3-15.7H148c-2.9 0-3 .2-3 4.4v4.3l-15 8.7c-8.2 4.7-15.2 8.6-15.5 8.6-.3 0-.5-15.3-.5-34 0-37.3-.1-37.7-5.5-30.5zm-29 82c1.4 1.3 2.5 2.9 2.5 3.6 0 2.2-7.6 8.6-12.4 10.4-4.3 1.7-5.1 1.7-7.5.4-6-3.4-3.1-10.1 6.4-14.5 6.3-3 8-3 11 .1zM118 135c2.4 1.3 4 6.2 4 12.5 0 9.5-6.5 13.7-11.3 7.3-1.5-2.1-2.1-4.4-2.1-9.1-.1-9.6 3.6-13.8 9.4-10.7z"/>
</svg>
