<svg xmlns="http://www.w3.org/2000/svg" viewBox="0 0 1089 719" xmlns:xlink="http://www.w3.org/1999/xlink">
  <defs>
    <path id="a" d="M452.5413 189.9103c7.5055 34.485 9.3312 39.5563 16.431 42.802 8.317 3.854 23.9366 2.0284 29.4136-3.4486 2.231-2.2314 4.868-7.5055 6.085-11.9683 1.217-4.6656 3.043-8.317 4.057-8.317 2.637 0 2.637 10.954-.203 20.2853-1.826 6.2884-1.623 9.737 1.217 19.068 2.028 6.4914 5.477 12.9827 7.911 14.6055 9.94 6.897 25.356.8114 30.833-12.7797 1.623-3.6513 3.854-6.694 4.868-6.694 3.246 0 2.434 6.897-2.029 17.2423-5.274 12.1712-5.072 21.2996.203 28.1965 7.708 9.737 15.214 6.4913 23.125-9.9397 3.854-7.9113 3.854-7.9113 4.665-2.637.811 6.4912-4.666 17.648-16.026 32.2534-22.111 28.6022-39.962 43.2076-74.042 60.2472-29.211 14.6054-37.325 20.894-37.325 28.6022 0 7.3027 12.7794 20.0824 32.456 32.2536 8.317 5.0713 18.6625 12.1712 22.9224 15.8225 8.7227 7.3027 26.5737 12.9826 40.5705 12.9826 8.723 0 9.534-.405 9.534-4.868 0-7.1 3.652-8.52 6.289-2.434 5.0712 10.954 11.9682 5.68 11.9682-9.128 0-7.505 3.651-7.708 5.274-.405 2.84 13.997 3.854 14.403 9.534 3.652 2.84-5.68 7.5054-12.374 10.3453-15.011 6.2886-5.883 6.897-4.26 1.0145 3.652-4.6653 6.491-6.288 18.663-2.434 19.88 1.42.609 3.651-1.623 4.8685-4.868 3.854-9.534 4.868-11.36 6.897-10.954 2.028.203 2.434 2.029 2.84 12.78.203 8.114 7.1 7.709 10.345-.608 2.84-6.694 6.086-4.8683 6.086 3.6516 0 3.043 1.2174 4.6658 3.6516 4.8686 18.46 1.0144 36.311-4.26 47.874-14.1996 4.869-4.26 14.403-10.954 20.894-14.6056 14.606-8.317 33.065-25.966 33.065-31.645 0-7.709-7.911-14.403-29.819-24.951-12.171-5.883-27.9934-14.606-35.296-19.474-29.819-19.677-71.201-72.216-63.087-80.33 1.623-1.623 3.651 1.014 7.3025 9.331 4.463 10.143 5.68 11.36 11.36 11.36 4.6655 0 7.1-1.42 10.1426-6.694 5.071-8.1144 5.071-14.2.203-24.748-2.0284-4.463-4.26-10.5487-5.071-13.794-2.028-8.723 3.6513-6.897 7.9113 2.8396 4.057 8.9254 11.5626 13.997 21.2996 13.997 8.114 0 13.3884-5.68 17.2426-18.8655 2.637-9.3314 2.84-11.969.203-20.286-2.6377-9.128-2.4348-17.648.811-17.648.8113 0 2.434 3.854 3.854 8.52 1.42 4.8688 4.057 10.3458 5.68 12.171 4.057 4.463 21.502 6.694 29.008 3.652 6.897-2.84 8.722-6.897 15.011-35.0934 5.071-22.516 9.331-31.848 14.402-31.848 3.6516 0 3.6516-.811.203 11.36-10.548 36.7168-2.8395 62.682 17.8515 61.262 7.5054-.6084 8.7225-1.42 13.388-9.737l5.0714-9.128 1.217 16.229c1.623 19.271 4.057 25.9654 10.5484 30.428 3.854 2.434 6.288 2.637 10.3452 1.217 11.3596-4.4625 19.068-25.762 21.2994-59.233.811-12.171 2.231-22.719 3.043-23.5306.811-1.014 2.84.203 4.665 2.434 4.26 5.477 2.434 37.122-4.463 76.4756-2.84 16.431-5.071 33.8763-5.071 38.542.203 16.431 8.52 32.0506 17.0394 32.0506 6.4915 0 25.5596-21.502 36.9194-41.787 14.402-25.3563 20.082-40.773 25.1535-66.7382 10.548-54.7704 11.157-56.799 17.648-51.525 2.637 2.2316 2.84 5.68 1.8253 20.0827-4.8685 61.2614-16.634 101.2234-40.7734 137.1283-23.125 34.282-33.065 69.173-23.125 81.141 5.68 6.897 21.2993.8117 31.0362-11.7652 6.897-9.3313 14.605-29.8194 19.676-53.959 5.071-23.328 9.94-35.702 15.822-38.745 3.854-2.231 4.2596-1.8254 4.2596 3.4487 0 3.246-1.42 9.94-3.2455 14.8087-4.6656 13.388-5.8827 32.456-2.434 37.122 4.6654 5.883 10.751 2.434 18.865-10.751 10.143-16.837 12.577-18.46 14.2-9.737 1.8252 9.737-2.6376 17.648-18.663 32.862-22.7195 21.705-26.5737 32.456-14.6054 42.396 11.7655 9.94 26.7765 7.1 51.322-9.534 22.3135-15.214 29.819-24.3426 40.57-50.105 10.549-25.357 16.228-33.674 19.474-28.4 3.652 5.68 2.232 26.7765-2.637 38.542-16.6332 40.3676-54.567 68.1584-107.917 78.9096-51.727 10.5485-83.778 9.737-124.551-2.84-12.577-3.854-25.965-7.1-29.4135-7.1-14.808 0-41.5843 17.2427-75.258 48.482-10.954 10.3455-23.734 20.894-28.3992 23.531-11.3597 6.694-29.819 11.1568-46.0475 11.1568h-13.59l-.6087-11.7654-.608-11.563h-20.285l-.6086 11.9685-.6083 11.7654-20.691-.812c-18.054-.6082-22.517-1.6225-33.877-6.897-7.303-3.448-19.068-11.5622-26.371-18.0535-20.285-18.257-42.194-33.877-62.073-44.019-29.414-15.214-30.428-15.214-57.205-6.897-29.82 9.534-52.742 11.968-81.547 9.331-72.419-6.897-116.438-27.994-142.2-68.564-8.723-13.794-14.809-34.891-13.186-46.048 2.84-18.4595 8.7225-13.1853 21.908 19.271 9.534 23.734 17.0396 33.4708 37.325 47.873 29.2106 20.894 52.133 23.1255 60.044 5.883 3.651-8.114 0-15.214-16.431-32.2536-8.723-9.128-17.243-18.662-19.0684-21.502-3.6516-5.274-4.6658-19.271-1.623-21.0968 1.014-.8115 6.2883 5.477 11.7653 13.388 10.954 16.634 16.0253 18.6626 20.691 8.9256 2.84-6.0852 1.217-17.0393-6.2886-43.2073-2.84-10.1426-1.217-12.78 4.666-7.5055 6.4912 5.883 8.9254 11.968 13.997 34.282 5.68 24.545 12.577 45.642 18.4593 54.973 9.1283 15.011 29.211 22.314 34.485 12.577 1.42-2.637 2.0284-9.534 1.42-17.648-1.217-17.039-10.3456-38.947-24.951-60.653-22.314-33.268-30.631-56.19-37.7306-104.672-4.8683-33.876-4.6654-54.567.6088-55.581 4.057-.812 5.68 4.665 11.7653 39.15 5.477 31.442 13.591 55.176 26.371 77.896 24.748 44.019 41.382 54.973 50.713 34.0794 5.274-11.157 5.274-29.616 0-58.827-5.68-32.659-8.317-61.87-6.0856-70.9982 4.057-18.054 7.5054-11.7654 9.737 17.851 3.2455 39.962 12.171 57.2044 29.4134 55.9873 5.0714-.203 11.36-15.214 11.7656-27.588 0-5.68.8114-12.374 1.8257-15.214l1.42-5.071 1.42 5.477c5.274 18.6623 30.428 18.6623 35.702-.203 2.84-10.548 2.434-29.819-1.014-42.802-4.666-17.242-3.246-20.488 4.868-12.374 2.0284 2.0286 5.274 10.7513 7.1 19.677z"/>
    <mask id="b" width="890" height="355.777" x="0" y="0" fill="#fff">
      <use xlink:href="#a"/>
    </mask>
  </defs>
  <g fill="none" fill-rule="evenodd">
    <mask id="c" fill="#fff">
      <use xlink:href="#a"/>
    </mask>
    <use stroke="#000" stroke-width="2" mask="url(#b)" xlink:href="#a"/>
    <text fill="#000" mask="url(#c)" font-family="AmericanTypewriter, American Typewriter" font-size="18">
      <tspan x="1" y="16" fill-opacity=".4008">Cut Moose is a new collaboration</tspan> <tspan x="281.674" y="16" fill-opacity=".4008"> </tspan> <tspan x="290.674" y="16" fill-opacity=".4008">founded by the director Irene Ros and puppeteer Helen Ainsworth Cut Moose is </tspan> <tspan x="1" y="37" fill-opacity=".4008">a new collaboration</tspan> <tspan x="168.868" y="37" fill-opacity=".4008"> </tspan> <tspan x="177.868" y="37" fill-opacity=".4008">founded by the director Irene Ros and puppeteer Helen Ainsworth Cut Moose is a new collaboration</tspan> <tspan x="1031.914" y="37" fill-opacity=".4008"> </tspan> <tspan x="1" y="58" fill-opacity=".4008">founded by the director Irene Ros and puppeteer Helen Ainsworth Cut Moose is a new collaboration</tspan> <tspan x="855.046" y="58" fill-opacity=".4008"> </tspan> <tspan x="864.046" y="58" fill-opacity=".4008">founded by the director </tspan> <tspan x="1" y="79" fill-opacity=".4008">Irene Ros and puppeteer Helen Ainsworth Cut Moose is a new collaboration</tspan> <tspan x="648.37" y="79" fill-opacity=".4008"> </tspan> <tspan x="657.37" y="79" fill-opacity=".4008">founded by the director Irene Ros and puppeteer </tspan> <tspan x="1" y="100" fill-opacity=".4008">Helen Ainsworth Cut Moose is a new collaboration</tspan> <tspan x="431.884" y="100" fill-opacity=".4008"> </tspan> <tspan x="440.884" y="100" fill-opacity=".4008">founded by the director Irene Ros and puppeteer Helen Ainsworth </tspan> <tspan x="1" y="121" fill-opacity=".4008">Cut Moose is a new collaboration</tspan> <tspan x="281.674" y="121" fill-opacity=".4008"> </tspan> <tspan x="290.674" y="121" fill-opacity=".4008">founded by the director Irene Ros and puppeteer Helen Ainsworth Cut Moose is </tspan> <tspan x="1" y="142" fill-opacity=".4008">a new collaboration</tspan> <tspan x="168.868" y="142" fill-opacity=".4008"> </tspan> <tspan x="177.868" y="142" fill-opacity=".4008">founded by the director Irene Ros and puppeteer Helen Ainsworth Cut Moose is a new collaboration</tspan> <tspan x="1031.914" y="142" fill-opacity=".4008"> </tspan> <tspan x="1" y="163" fill-opacity=".4008">founded by the director Irene Ros and puppeteer Helen Ainsworth Cut Moose is a new collaboration</tspan> <tspan x="855.046" y="163" fill-opacity=".4008"> </tspan> <tspan x="864.046" y="163" fill-opacity=".4008">founded by the director </tspan> <tspan x="1" y="184" fill-opacity=".4008">Irene Ros and puppeteer Helen Ainsworth Cut Moose is a new collaboration</tspan> <tspan x="648.37" y="184" fill-opacity=".4008"> </tspan> <tspan x="657.37" y="184" fill-opacity=".4008">founded by the director Irene Ros and puppeteer </tspan> <tspan x="1" y="205" fill-opacity=".4008">Helen Ainsworth Cut Moose is a new collaboration</tspan> <tspan x="431.884" y="205" fill-opacity=".4008"> </tspan> <tspan x="440.884" y="205" fill-opacity=".4008">founded by the director Irene Ros and puppeteer Helen Ainsworth </tspan> <tspan x="1" y="226" fill-opacity=".4008">Cut Moose is a new collaboration</tspan> <tspan x="281.674" y="226" fill-opacity=".4008"> </tspan> <tspan x="290.674" y="226" fill-opacity=".4008">founded by the director Irene Ros and puppeteer Helen Ainsworth Cut Moose is </tspan> <tspan x="1" y="247" fill-opacity=".4008">a new collaboration</tspan> <tspan x="168.868" y="247" fill-opacity=".4008"> </tspan> <tspan x="177.868" y="247" fill-opacity=".4008">founded by the director Irene Ros and puppeteer Helen Ainsworth Cut Moose is a new collaboration</tspan> <tspan x="1031.914" y="247" fill-opacity=".4008"> </tspan> <tspan x="1" y="268" fill-opacity=".4008">founded by the director Irene Ros and puppeteer Helen Ainsworth Cut Moose is a new collaboration</tspan> <tspan x="855.046" y="268" fill-opacity=".4008"> </tspan> <tspan x="864.046" y="268" fill-opacity=".4008">founded by the director </tspan> <tspan x="1" y="289" fill-opacity=".4008">Irene Ros and puppeteer Helen Ainsworth. </tspan> <tspan x="372.61" y="289" font-family="AmericanTypewriter-Bold, American Typewriter" font-weight="bold">Cut Moose is</tspan> <tspan x="486.784" y="289" fill-opacity=".4008"> a new collaboration</tspan> <tspan x="659.152" y="289" fill-opacity=".4008"> </tspan> <tspan x="668.152" y="289" fill-opacity=".4008">founded by the director Irene Ros and puppeteer </tspan> <tspan x="1" y="311" fill-opacity=".4008">Helen Ainsworth Cut Moose is a new collaboration</tspan> <tspan x="431.884" y="311" fill-opacity=".4008"> </tspan> <tspan x="440.884" y="311" fill-opacity=".4008">founded by the oose is </tspan> <tspan x="634.744" y="311" font-family="AmericanTypewriter-Bold, American Typewriter" font-weight="bold">a new collaboration</tspan> <tspan x="812.854" y="311" fill-opacity=".4008"> </tspan> <tspan x="821.854" y="311" fill-opacity=".4008">founded by the director Irene </tspan> <tspan x="1" y="333" fill-opacity=".4008">Ros and puppeteer Helen Ainsworth Cut Moose is a new collaboration</tspan> <tspan x="597.682" y="333" fill-opacity=".4008"> </tspan> <tspan x="606.682" y="333" fill-opacity=".4008">founded by the director Irene Ros and puppeteer Helen </tspan> <tspan x="1" y="354" fill-opacity=".4008">Ainsworth Cut collaboration collaboration</tspan> <tspan x="362.044" y="354" fill-opacity=".4008"> </tspan> <tspan x="366.544" y="354" font-family="AmericanTypewriter-Bold, American Typewriter" font-weight="bold">founded by</tspan> <tspan x="466.732" y="354" fill-opacity=".4008"> the director Irene by</tspan> <tspan x="663.328" y="354" fill-opacity=".4008" font-family="AmericanTypewriter-Bold, American Typewriter" font-weight="bold"> </tspan> <tspan x="667.828" y="354" fill-opacity=".4008">the </tspan> <tspan x="700.498" y="354" font-family="AmericanTypewriter-Bold, American Typewriter" font-weight="bold">director</tspan> <tspan x="774.226" y="354"> </tspan> <tspan x="778.726" y="354" font-family="AmericanTypewriter-Bold, American Typewriter" font-weight="bold">Irene Ros </tspan> <tspan x="870.81" y="354" fill-opacity=".4008"> Cut Moose is </tspan> <tspan x="1" y="376" fill-opacity=".4008">a new collaboration</tspan> <tspan x="168.868" y="376" fill-opacity=".4008"> </tspan> <tspan x="177.868" y="376" fill-opacity=".4008">founded by the director Irene Ros and puppeteer Helen Ainsworth. Cut Moose is a new collaboration</tspan> <tspan x="1036.828" y="376" fill-opacity=".4008"> </tspan> <tspan x="1" y="397" fill-opacity=".4008">founded by the director Irene Ros and puppeteer Helen Ainsworth Cut Moose is a new collaboration</tspan> <tspan x="855.046" y="397" fill-opacity=".4008"> </tspan> <tspan x="864.046" y="397" fill-opacity=".4008">founded by the director </tspan> <tspan x="1" y="418" fill-opacity=".4008">Irene Ros and puppeteer Helen founded </tspan> <tspan x="346.384" y="418" font-family="AmericanTypewriter-Bold, American Typewriter" font-weight="bold">puppeteer</tspan> <tspan x="436.834" y="418" fill-opacity=".4008"> Helen Ainsworth Cut Moose is a new collaboration</tspan> <tspan x="872.218" y="418" fill-opacity=".4008"> </tspan> <tspan x="881.218" y="418" fill-opacity=".4008">founded by the director </tspan> <tspan x="1" y="440" fill-opacity=".4008">Irene Ros and puppeteer Helen Ainsworth. Cut Moose is a new collaboration</tspan> <tspan x="653.284" y="440" fill-opacity=".4008"> </tspan> <tspan x="662.284" y="440" fill-opacity=".4008">founded by the director Irene Ros and puppeteer </tspan> <tspan x="1" y="461" fill-opacity=".4008">Helen Ainsworth Cut Moose is a new collaboration</tspan> <tspan x="431.884" y="461" fill-opacity=".4008"> </tspan> <tspan x="440.884" y="461" fill-opacity=".4008">founded by the director Irene Ros puppeteer Cut Moose is </tspan> <tspan x="1" y="482" fill-opacity=".4008">a new collaboration</tspan> <tspan x="168.868" y="482" fill-opacity=".4008"> </tspan> <tspan x="177.868" y="482" fill-opacity=".4008">founded by the director and puppeteer </tspan> <tspan x="514.054" y="482" font-family="AmericanTypewriter-Bold, American Typewriter" font-weight="bold">Helen Ainsworth</tspan> <tspan x="669.628" y="482" fill-opacity=".4008" font-family="AmericanTypewriter-Bold, American Typewriter" font-weight="bold">.</tspan> <tspan x="675.532" y="482" fill-opacity=".4008"> Cut Moose is a new collaboration</tspan> <tspan x="960.706" y="482" fill-opacity=".4008"> </tspan> <tspan x="969.706" y="482" fill-opacity=".4008">founded by </tspan> <tspan x="1" y="504" fill-opacity=".4008">the director Irene Ros and puppeteer Helen Ainsworth Cut Moose is a new collaboration</tspan> <tspan x="755.308" y="504" fill-opacity=".4008"> </tspan> <tspan x="764.308" y="504" fill-opacity=".4008">founded by the director Irene Ros </tspan> <tspan x="1" y="525" fill-opacity=".4008">and puppeteer Helen Ainsworth Cut Moose is a new collaboration</tspan> <tspan x="561.394" y="525" fill-opacity=".4008"> </tspan> <tspan x="570.394" y="525" fill-opacity=".4008">founded by the director Irene Ros and puppeteer Helen </tspan> <tspan x="1" y="546" fill-opacity=".4008">Ainsworth Cut Moose is a new collaboration</tspan> <tspan x="377.254" y="546" fill-opacity=".4008"> </tspan> <tspan x="386.254" y="546" fill-opacity=".4008">founded by the director Irene Ros and puppeteer Helen Ainsworth Cut Moose is </tspan> <tspan x="1" y="567" fill-opacity=".4008">a new collaboration</tspan> <tspan x="168.868" y="567" fill-opacity=".4008"> </tspan> <tspan x="177.868" y="567" fill-opacity=".4008">founded by the director Irene Ros and puppeteer Helen Ainsworth Cut Moose is a new collaboration</tspan> <tspan x="1031.914" y="567" fill-opacity=".4008"> </tspan> <tspan x="1" y="588" fill-opacity=".4008">founded by the director Irene Ros and puppeteer Helen Ainsworth Cut Moose is a new collaboration</tspan> <tspan x="855.046" y="588" fill-opacity=".4008"> </tspan> <tspan x="864.046" y="588" fill-opacity=".4008">founded by the director </tspan> <tspan x="1" y="609" fill-opacity=".4008">Irene Ros and puppeteer Helen Ainsworth Cut Moose is a new collaboration</tspan> <tspan x="648.37" y="609" fill-opacity=".4008"> </tspan> <tspan x="657.37" y="609" fill-opacity=".4008">founded by the director Irene Ros and puppeteer </tspan> <tspan x="1" y="630" fill-opacity=".4008">Helen Ainsworth Cut Moose is a new collaboration</tspan> <tspan x="431.884" y="630" fill-opacity=".4008"> </tspan> <tspan x="440.884" y="630" fill-opacity=".4008">founded by the director Irene Ros and puppeteer Helen Ainsworth </tspan> <tspan x="1" y="651" fill-opacity=".4008">Cut Moose is a new collaboration</tspan> <tspan x="281.674" y="651" fill-opacity=".4008"> </tspan> <tspan x="290.674" y="651" fill-opacity=".4008">founded by the director Irene Ros and puppeteer Helen Ainsworth Cut Moose is </tspan> <tspan x="1" y="672" fill-opacity=".4008">a new collaboration</tspan> <tspan x="168.868" y="672" fill-opacity=".4008"> </tspan> <tspan x="177.868" y="672" fill-opacity=".4008">founded by the director Irene Ros and puppeteer Helen Ainsworth Cut Moose is a new collaboration</tspan> <tspan x="1031.914" y="672" fill-opacity=".4008"> </tspan> <tspan x="1" y="693" fill-opacity=".4008">founded by the director Irene Ros and puppeteer Helen Ainsworth Cut Moose is a new collaboration</tspan> <tspan x="855.046" y="693" fill-opacity=".4008"> </tspan> <tspan x="864.046" y="693" fill-opacity=".4008">founded by the director </tspan> <tspan x="1" y="714" fill-opacity=".4008">Irene Ros and puppeteer Helen Ainsworth </tspan>
    </text>
  </g>
</svg>
